<svg width="145" height="30" viewBox="0 0 145 30" fill="none" xmlns="http://www.w3.org/2000/svg">
<path d="M145 15.2752C145 15.4141 144.976 15.7754 144.93 16.359H132.439C132.689 17.6373 133.296 18.6701 134.259 19.4575C135.232 20.2356 136.417 20.6246 137.816 20.6246C138.854 20.6246 139.808 20.407 140.678 19.9716C141.549 19.527 142.23 18.9573 142.721 18.2625L144.402 19.7076C143.67 20.6895 142.721 21.463 141.554 22.028C140.396 22.5931 139.122 22.8756 137.733 22.8756C135.463 22.8756 133.574 22.1438 132.064 20.6802C130.554 19.2166 129.799 17.3964 129.799 15.2196C129.799 13.8116 130.128 12.5333 130.785 11.3847C131.452 10.2268 132.369 9.31901 133.536 8.66133C134.704 8.00365 136 7.6748 137.427 7.6748C138.844 7.6748 140.132 8.00365 141.29 8.66133C142.448 9.31901 143.355 10.2314 144.013 11.3986C144.671 12.5565 145 13.8487 145 15.2752ZM137.399 9.92574C136.139 9.92574 135.051 10.3194 134.134 11.1068C133.217 11.8849 132.643 12.8946 132.411 14.1358H142.401C142.17 12.876 141.595 11.8617 140.678 11.0929C139.761 10.3148 138.668 9.92574 137.399 9.92574Z" fill="white"/>
<path d="M124.318 22.9027C125.698 22.9027 126.833 23.25 127.722 23.9448C128.611 24.6395 129.125 25.589 129.264 26.7932L126.736 27.4462C126.708 26.7978 126.43 26.2744 125.902 25.8761C125.383 25.4871 124.712 25.2925 123.887 25.2925H118.538C117.333 25.2925 116.356 24.973 115.606 24.3338C114.865 23.6947 114.494 22.8656 114.494 21.8467C114.494 21.1612 114.652 20.522 114.967 19.9292C115.291 19.3271 115.731 18.8732 116.287 18.5675C115.657 17.984 115.166 17.2985 114.814 16.5111C114.471 15.7238 114.3 14.8762 114.3 13.9684C114.3 12.1713 114.93 10.6754 116.189 9.48041C117.459 8.2762 119.038 7.6741 120.928 7.6741C122.215 7.6741 123.401 7.98905 124.485 8.61894C124.624 7.8501 124.989 7.23874 125.582 6.78484C126.175 6.33095 126.912 6.104 127.792 6.104H128.903V8.38273H127.93C127.402 8.38273 126.972 8.53094 126.638 8.82736C126.314 9.11452 126.147 9.49894 126.138 9.98062C127.083 11.1015 127.555 12.4307 127.555 13.9684C127.555 15.7562 126.921 17.2568 125.652 18.4703C124.383 19.6745 122.808 20.2766 120.928 20.2766C119.788 20.2766 118.765 20.0496 117.857 19.5957C117.57 19.781 117.343 20.0218 117.176 20.3183C117.019 20.6054 116.94 20.9065 116.94 21.2214C116.94 21.7309 117.13 22.1385 117.509 22.4441C117.889 22.7498 118.385 22.9027 118.996 22.9027H124.318ZM120.928 10.0084C119.751 10.0084 118.774 10.3882 117.996 11.1478C117.218 11.8981 116.829 12.8383 116.829 13.9684C116.829 15.1078 117.218 16.0572 117.996 16.8168C118.783 17.5671 119.76 17.9423 120.928 17.9423C122.095 17.9423 123.067 17.5671 123.845 16.8168C124.633 16.0572 125.026 15.1078 125.026 13.9684C125.026 12.8383 124.633 11.8981 123.845 11.1478C123.067 10.3882 122.095 10.0084 120.928 10.0084Z" fill="white"/>
<path d="M108.859 2.0332H111.305V22.5278H108.859V19.9156C108.238 20.842 107.437 21.5691 106.455 22.0971C105.483 22.6158 104.404 22.8752 103.218 22.8752C101.856 22.8752 100.62 22.5464 99.508 21.8887C98.3964 21.2217 97.5257 20.3093 96.8958 19.1514C96.2752 17.9843 95.9648 16.6921 95.9648 15.2748C95.9648 13.8576 96.2752 12.57 96.8958 11.4121C97.5257 10.245 98.3964 9.33254 99.508 8.67486C100.62 8.00791 101.856 7.67444 103.218 7.67444C104.404 7.67444 105.483 7.93844 106.455 8.46644C107.437 8.98517 108.238 9.70769 108.859 10.634V2.0332ZM103.676 20.5131C105.158 20.5131 106.39 20.0129 107.372 19.0125C108.364 18.0121 108.859 16.7662 108.859 15.2748C108.859 13.7835 108.364 12.5376 107.372 11.5372C106.39 10.5367 105.158 10.0365 103.676 10.0365C102.185 10.0365 100.944 10.5367 99.9526 11.5372C98.9615 12.5376 98.4659 13.7835 98.4659 15.2748C98.4659 16.7662 98.9615 18.0121 99.9526 19.0125C100.944 20.0129 102.185 20.5131 103.676 20.5131Z" fill="white"/>
<path d="M83.5497 20.0827H93.9429V22.5282H80.9375V2.89502H93.804V5.34048H83.5497V11.4263H92.8591V13.8718H83.5497V20.0827Z" fill="white"/>
<path fill-rule="evenodd" clip-rule="evenodd" d="M75.5259 14.7024C75.5259 22.8223 68.9434 29.4048 60.8235 29.4048C52.7036 29.4048 46.1211 22.8223 46.1211 14.7024C46.1211 6.5825 52.7036 0 60.8235 0C68.9434 0 75.5259 6.5825 75.5259 14.7024ZM67.4638 9.95991C67.4638 11.2696 68.5255 12.3313 69.8352 12.3313C71.1449 12.3313 72.2066 11.2696 72.2066 9.95991C72.2066 8.65024 71.1449 7.58855 69.8352 7.58855C68.5255 7.58855 67.4638 8.65024 67.4638 9.95991ZM64.7631 8.02212H62.3176V10.6343C61.697 9.70801 60.8957 8.98549 59.9139 8.46675C58.9412 7.93876 57.8621 7.67476 56.6764 7.67476C55.3147 7.67476 54.0781 8.00823 52.9665 8.67517C51.8549 9.33285 50.9842 10.2453 50.3543 11.4124C49.7337 12.5703 49.4234 13.8579 49.4234 15.2751C49.4234 16.6924 49.7337 17.9846 50.3543 19.1518C50.9842 20.3096 51.8549 21.2221 52.9665 21.889C54.0781 22.5467 55.3147 22.8755 56.6764 22.8755C57.8621 22.8755 58.9412 22.6162 59.9139 22.0974C60.8957 21.5694 61.697 20.8423 62.3176 19.916V22.5282H64.7631V8.02212ZM60.8309 19.0128C59.849 20.0132 58.617 20.5134 57.1349 20.5134C55.6436 20.5134 54.4023 20.0132 53.4111 19.0128C52.42 18.0124 51.9244 16.7665 51.9244 15.2751C51.9244 13.7838 52.42 12.5379 53.4111 11.5375C54.4023 10.5371 55.6436 10.0369 57.1349 10.0369C58.617 10.0369 59.849 10.5371 60.8309 11.5375C61.8221 12.5379 62.3176 13.7838 62.3176 15.2751C62.3176 16.7665 61.8221 18.0124 60.8309 19.0128Z" fill="white"/>
<path d="M38.3076 7.6748C40.0768 7.6748 41.4987 8.21207 42.5732 9.28659C43.657 10.3611 44.1989 11.7876 44.1989 13.5661V22.5282H41.7534V14.3304C41.7534 13.0335 41.369 11.996 40.6002 11.2179C39.8313 10.4306 38.8031 10.0369 37.5156 10.0369C36.1724 10.0369 35.0979 10.4352 34.292 11.2318C33.4861 12.0285 33.0832 13.0798 33.0832 14.3859V22.5282H30.6377V8.02217H33.0832V10.2314C34.2596 8.52701 36.001 7.6748 38.3076 7.6748Z" fill="white"/>
<path d="M25.1847 21.208C23.9898 22.3196 22.4012 22.8754 20.4189 22.8754C18.4366 22.8754 16.8433 22.3196 15.6391 21.208C14.4442 20.0872 13.8467 18.6097 13.8467 16.7756V8.02197H16.2921V16.4421C16.2921 17.6649 16.6673 18.6514 17.4176 19.4017C18.1772 20.1428 19.1776 20.5133 20.4189 20.5133C21.6601 20.5133 22.6559 20.1428 23.4062 19.4017C24.1658 18.6514 24.5456 17.6649 24.5456 16.4421V8.02197H26.991V16.7756C26.991 18.6097 26.3889 20.0872 25.1847 21.208Z" fill="white"/>
<path d="M2.6122 20.0827H12.1439V22.5282H0V2.89502H2.6122V20.0827Z" fill="white"/>
</svg>
